{"asset":{"version":"2.0","generator":"m+CAD glTF exporter","extras":{"mcadSceneId":"scene/basic-triangle","mcadSceneSchemaVersion":"1.0"}},"meshes":[{"name":"Basic Triangle","primitives":[{"attributes":{"POSITION":0,"NORMAL":1},"indices":2,"mode":4,"extras":{"mcadPrimitiveIndex":0}}],"extras":{"mcadStableId":"mesh/basic-triangle"}}],"nodes":[{"name":"Root","extras":{"mcadStableId":"node/root"},"mesh":0}],"scenes":[{"nodes":[0],"extras":{"mcadStableId":"scene/basic-triangle","mcadStatistics":{"sourceBlockCount":0,"visibleFaceCount":1,"removedHiddenFaceCount":0,"vertexCount":3,"triangleCount":1,"meshCount":1,"materialCount":0},"mcadOriginTransform":{"translation":[0.0,0.0,0.0],"rotation":[0.0,0.0,0.0,1.0],"scale":[1.0,1.0,1.0]},"mcadConfiguredExportTransform":{"translation":[0.0,0.0,0.0],"rotation":[0.0,0.0,0.0,1.0],"scale":[1.0,1.0,1.0]},"mcadEffectiveExportTransformChain":[{"translation":[0.0,0.0,0.0],"rotation":[0.0,0.0,0.0,1.0],"scale":[1.0,1.0,1.0]},{"translation":[0.0,0.0,0.0],"rotation":[0.0,0.0,0.0,1.0],"scale":[1.0,1.0,1.0]}]}}],"scene":0,"buffers":[{"byteLength":80,"uri":"basic-triangle.bin"}],"bufferViews":[{"buffer":0,"byteLength":36,"target":34962},{"buffer":0,"byteOffset":36,"byteLength":36,"target":34962},{"buffer":0,"byteOffset":72,"byteLength":6,"target":34963}],"accessors":[{"bufferView":0,"componentType":5126,"count":3,"type":"VEC3","min":[0.0,0.0,0.0],"max":[1.0,1.0,0.0]},{"bufferView":1,"componentType":5126,"count":3,"type":"VEC3"},{"bufferView":2,"componentType":5123,"count":3,"type":"SCALAR","min":[0],"max":[2]}]}
